<?xml version="1.0" standalone="no"?>
<!DOCTYPE svg PUBLIC "-//W3C//DTD SVG 20010904//EN"
 "http://www.w3.org/TR/2001/REC-SVG-20010904/DTD/svg10.dtd">
<svg version="1.0" xmlns="http://www.w3.org/2000/svg"
 width="100.000000pt" height="100.000000pt" viewBox="0 0 100.000000 100.000000"
 preserveAspectRatio="xMidYMid meet">
<metadata>
Created by potrace 1.14, written by Peter Selinger 2001-2017
</metadata>
<g transform="translate(0.000000,100.000000) scale(0.100000,-0.100000)"
fill="#000000" stroke="none">
<path d="M234 963 c-22 -7 -56 -29 -75 -49 l-34 -35 -5 -137 c-6 -149 -11
-164 -66 -200 -46 -30 -45 -61 0 -86 53 -28 66 -66 66 -195 0 -126 12 -163 64
-199 37 -25 134 -49 159 -39 28 10 22 65 -7 77 -47 17 -56 45 -56 168 0 123
-10 161 -54 205 l-27 27 27 27 c44 44 54 82 54 205 0 123 9 151 57 169 20 7
24 15 21 41 -3 31 -5 33 -43 34 -22 1 -58 -5 -81 -13z"/>
<path d="M647 973 c-4 -3 -7 -19 -7 -35 0 -21 6 -31 24 -38 47 -17 56 -45 56
-168 0 -122 9 -158 53 -205 l26 -27 -25 -25 c-43 -43 -54 -85 -54 -207 0 -123
-9 -151 -57 -169 -20 -7 -24 -15 -21 -41 3 -31 5 -33 43 -34 47 -1 111 19 141
45 44 36 54 73 54 196 0 131 8 155 66 193 45 29 46 61 1 85 -55 30 -61 48 -67
200 l-5 139 -41 38 c-29 27 -56 41 -93 49 -60 13 -85 14 -94 4z"/>
</g>
</svg>
